<?xml version="1.0" encoding="UTF-8" standalone="no"?>
<svg
   sodipodi:docname="logo-square.svg"
   inkscape:version="1.2 (1:1.2.1+202207142221+cd75a1ee6d)"
   id="svg8"
   version="1.1"
   viewBox="0 0 28.839583 28.839585"
   height="109"
   width="109"
   xmlns:inkscape="http://www.inkscape.org/namespaces/inkscape"
   xmlns:sodipodi="http://sodipodi.sourceforge.net/DTD/sodipodi-0.dtd"
   xmlns="http://www.w3.org/2000/svg"
   xmlns:svg="http://www.w3.org/2000/svg"
   xmlns:rdf="http://www.w3.org/1999/02/22-rdf-syntax-ns#"
   xmlns:cc="http://creativecommons.org/ns#"
   xmlns:dc="http://purl.org/dc/elements/1.1/">
  <defs
     id="defs2" />
  <sodipodi:namedview
     inkscape:window-maximized="1"
     inkscape:window-y="43"
     inkscape:window-x="43"
     inkscape:window-height="1037"
     inkscape:window-width="1877"
     fit-margin-bottom="5"
     fit-margin-right="5"
     fit-margin-left="5"
     fit-margin-top="5"
     units="px"
     lock-margins="true"
     inkscape:guide-bbox="true"
     showguides="true"
     showgrid="false"
     inkscape:document-rotation="0"
     inkscape:current-layer="layer1"
     inkscape:document-units="mm"
     inkscape:cy="27.61187"
     inkscape:cx="4.3272333"
     inkscape:zoom="2.4264927"
     inkscape:pageshadow="2"
     inkscape:pageopacity="0.0"
     borderopacity="1.0"
     bordercolor="#666666"
     pagecolor="#ffffff"
     id="base"
     inkscape:showpageshadow="0"
     inkscape:pagecheckerboard="0"
     inkscape:deskcolor="#d1d1d1" />
  <metadata
     id="metadata5">
    <rdf:RDF>
      <cc:Work
         rdf:about="">
        <dc:format>image/svg+xml</dc:format>
        <dc:type
           rdf:resource="http://purl.org/dc/dcmitype/StillImage" />
      </cc:Work>
    </rdf:RDF>
  </metadata>
  <g
     transform="translate(-30.674155,-64.873795)"
     id="layer1"
     inkscape:groupmode="layer"
     inkscape:label="Layer 1">
    <g
       id="g980"
       transform="translate(0,4.8947915)">
      <g
         id="g964">
        <g
           style="font-style:normal;font-variant:normal;font-weight:normal;font-stretch:normal;font-size:16.9333px;line-height:1;font-family:serif;-inkscape-font-specification:serif;text-align:start;letter-spacing:0px;word-spacing:0px;writing-mode:lr-tb;text-anchor:start;fill:#000000;fill-opacity:1;stroke:none;stroke-width:1;stroke-miterlimit:4;stroke-dasharray:none"
           id="text909">
          <path
             d="m 41.03838,79.694584 h 1.57096 v 0.87643 h -4.820368 v -0.87643 h 1.57096 V 69.111271 h -1.57096 v -0.884698 h 4.820368 v 0.884698 h -1.57096 z"
             style="font-style:normal;font-variant:normal;font-weight:normal;font-stretch:normal;font-size:16.9333px;font-family:serif;-inkscape-font-specification:serif;fill:#000000;fill-opacity:1;stroke-width:1;stroke-miterlimit:4;stroke-dasharray:none"
             id="path4153" />
        </g>
        <rect
           style="fill:none;fill-opacity:0.406481;stroke:#000000;stroke-width:1.32292;stroke-linecap:round;stroke-miterlimit:4;stroke-dasharray:none;stroke-opacity:1"
           id="rect911"
           width="17.727079"
           height="17.727079"
           x="31.335615"
           y="65.535255" />
      </g>
      <g
         id="g948"
         transform="translate(-0.21378583,-3.4049048)">
        <g
           style="font-style:normal;font-variant:normal;font-weight:normal;font-stretch:normal;font-size:7.05556px;line-height:1;font-family:Roboto;-inkscape-font-specification:'Roboto, Normal';text-align:start;letter-spacing:0px;word-spacing:0px;writing-mode:lr-tb;text-anchor:start;fill:#000000;fill-opacity:1;stroke:none;stroke-width:0.264583"
           id="text941">
          <path
             d="m 53.727891,75.174058 v -4.630212 h -0.609782 v -0.36518 h 1.24368 v 2.270319 q 0.186036,-0.344509 0.471979,-0.506429 0.289388,-0.165365 0.713135,-0.165365 0.675239,0 1.102431,0.53399 0.427192,0.533991 0.427192,1.395265 0,0.861274 -0.427192,1.39871 -0.427192,0.53399 -1.102431,0.53399 -0.423747,0 -0.713135,-0.16192 -0.285943,-0.165364 -0.471979,-0.509874 v 0.571886 h -1.24368 v -0.36518 z m 0.633898,-1.285022 q 0,0.661459 0.251492,1.009414 0.254938,0.34451 0.737251,0.34451 0.485759,0 0.733806,-0.389296 0.251492,-0.389297 0.251492,-1.147218 0,-0.761367 -0.251492,-1.147218 -0.248047,-0.38585 -0.733806,-0.38585 -0.482313,0 -0.737251,0.347954 -0.251492,0.347955 -0.251492,1.005969 z"
             style="font-style:normal;font-variant:normal;font-weight:normal;font-stretch:normal;font-size:7.05556px;font-family:serif;-inkscape-font-specification:serif;fill:#000000;fill-opacity:1;stroke-width:0.264583"
             id="path4150" />
        </g>
        <rect
           y="68.675575"
           x="50.863983"
           height="8.4666662"
           width="8.4666662"
           id="rect943"
           style="fill:none;fill-opacity:0.406481;stroke:#000000;stroke-width:0.79375;stroke-linecap:round;stroke-miterlimit:4;stroke-dasharray:none;stroke-opacity:1" />
      </g>
      <g
         transform="translate(-0.21378583,6.3846783)"
         id="g956">
        <g
           style="font-style:normal;font-variant:normal;font-weight:normal;font-stretch:normal;font-size:7.05556px;line-height:1;font-family:Roboto;-inkscape-font-specification:'Roboto, Normal';text-align:start;letter-spacing:0px;word-spacing:0px;writing-mode:lr-tb;text-anchor:start;fill:#000000;fill-opacity:1;stroke:none;stroke-width:0.264583"
           id="text952">
          <path
             d="m 53.727891,75.174058 v -4.630212 h -0.609782 v -0.36518 h 1.24368 v 2.270319 q 0.186036,-0.344509 0.471979,-0.506429 0.289388,-0.165365 0.713135,-0.165365 0.675239,0 1.102431,0.53399 0.427192,0.533991 0.427192,1.395265 0,0.861274 -0.427192,1.39871 -0.427192,0.53399 -1.102431,0.53399 -0.423747,0 -0.713135,-0.16192 -0.285943,-0.165364 -0.471979,-0.509874 v 0.571886 h -1.24368 v -0.36518 z m 0.633898,-1.285022 q 0,0.661459 0.251492,1.009414 0.254938,0.34451 0.737251,0.34451 0.485759,0 0.733806,-0.389296 0.251492,-0.389297 0.251492,-1.147218 0,-0.761367 -0.251492,-1.147218 -0.248047,-0.38585 -0.733806,-0.38585 -0.482313,0 -0.737251,0.347954 -0.251492,0.347955 -0.251492,1.005969 z"
             style="font-style:normal;font-variant:normal;font-weight:normal;font-stretch:normal;font-size:7.05556px;font-family:serif;-inkscape-font-specification:serif;fill:#000000;fill-opacity:1;stroke-width:0.264583"
             id="path4147" />
        </g>
        <rect
           style="fill:none;fill-opacity:0.406481;stroke:#000000;stroke-width:0.79375;stroke-linecap:round;stroke-miterlimit:4;stroke-dasharray:none;stroke-opacity:1"
           id="rect954"
           width="8.4666662"
           height="8.4666662"
           x="50.863983"
           y="68.675575" />
      </g>
    </g>
  </g>
</svg>
